<mxfile host="Electron" modified="2024-04-02T14:56:20.337Z" agent="Mozilla/5.0 (Macintosh; Intel Mac OS X 10_15_7) AppleWebKit/537.36 (KHTML, like Gecko) draw.io/24.1.0 Chrome/120.0.6099.109 Electron/28.1.0 Safari/537.36" etag="NWAppciT7R6wUNLbOOba" version="24.1.0" type="device">
  <diagram name="Page-1" id="wSowL-l4w6tseUVeKfWd">
    <mxGraphModel dx="1114" dy="999" grid="1" gridSize="10" guides="1" tooltips="1" connect="1" arrows="1" fold="1" page="1" pageScale="1" pageWidth="827" pageHeight="1169" math="0" shadow="0">
      <root>
        <mxCell id="0" />
        <mxCell id="1" parent="0" />
        <mxCell id="14CGLhOL8HgO2hVUa04r-3" value="Customer Account" style="points=[[0,0],[0.25,0],[0.5,0],[0.75,0],[1,0],[1,0.25],[1,0.5],[1,0.75],[1,1],[0.75,1],[0.5,1],[0.25,1],[0,1],[0,0.75],[0,0.5],[0,0.25]];outlineConnect=0;gradientColor=none;html=1;whiteSpace=wrap;fontSize=12;fontStyle=0;container=1;pointerEvents=0;collapsible=0;recursiveResize=0;shape=mxgraph.aws4.group;grIcon=mxgraph.aws4.group_account;strokeColor=#CD2264;fillColor=none;verticalAlign=top;align=left;spacingLeft=30;fontColor=#CD2264;dashed=0;" parent="1" vertex="1">
          <mxGeometry x="30" y="200" width="610" height="710" as="geometry" />
        </mxCell>
        <mxCell id="14CGLhOL8HgO2hVUa04r-4" value="Region" style="points=[[0,0],[0.25,0],[0.5,0],[0.75,0],[1,0],[1,0.25],[1,0.5],[1,0.75],[1,1],[0.75,1],[0.5,1],[0.25,1],[0,1],[0,0.75],[0,0.5],[0,0.25]];outlineConnect=0;gradientColor=none;html=1;whiteSpace=wrap;fontSize=12;fontStyle=0;container=1;pointerEvents=0;collapsible=0;recursiveResize=0;shape=mxgraph.aws4.group;grIcon=mxgraph.aws4.group_region;strokeColor=#00A4A6;fillColor=none;verticalAlign=top;align=left;spacingLeft=30;fontColor=#147EBA;dashed=1;" parent="14CGLhOL8HgO2hVUa04r-3" vertex="1">
          <mxGeometry x="10" y="30" width="590" height="680" as="geometry" />
        </mxCell>
        <mxCell id="14CGLhOL8HgO2hVUa04r-5" value="VPC" style="points=[[0,0],[0.25,0],[0.5,0],[0.75,0],[1,0],[1,0.25],[1,0.5],[1,0.75],[1,1],[0.75,1],[0.5,1],[0.25,1],[0,1],[0,0.75],[0,0.5],[0,0.25]];outlineConnect=0;gradientColor=none;html=1;whiteSpace=wrap;fontSize=12;fontStyle=0;container=1;pointerEvents=0;collapsible=0;recursiveResize=0;shape=mxgraph.aws4.group;grIcon=mxgraph.aws4.group_vpc2;strokeColor=#8C4FFF;fillColor=none;verticalAlign=top;align=left;spacingLeft=30;fontColor=#AAB7B8;dashed=0;" parent="14CGLhOL8HgO2hVUa04r-4" vertex="1">
          <mxGeometry x="10" y="30" width="430" height="640" as="geometry" />
        </mxCell>
        <mxCell id="14CGLhOL8HgO2hVUa04r-6" value="Availability Zone" style="fillColor=none;strokeColor=#147EBA;dashed=1;verticalAlign=top;fontStyle=0;fontColor=#147EBA;whiteSpace=wrap;html=1;" parent="14CGLhOL8HgO2hVUa04r-5" vertex="1">
          <mxGeometry x="20" y="50" width="160" height="370" as="geometry" />
        </mxCell>
        <mxCell id="14CGLhOL8HgO2hVUa04r-11" value="Availability Zone" style="fillColor=none;strokeColor=#147EBA;dashed=1;verticalAlign=top;fontStyle=0;fontColor=#147EBA;whiteSpace=wrap;html=1;" parent="14CGLhOL8HgO2hVUa04r-5" vertex="1">
          <mxGeometry x="220" y="50" width="160" height="370" as="geometry" />
        </mxCell>
        <mxCell id="14CGLhOL8HgO2hVUa04r-28" value="Public subnet" style="points=[[0,0],[0.25,0],[0.5,0],[0.75,0],[1,0],[1,0.25],[1,0.5],[1,0.75],[1,1],[0.75,1],[0.5,1],[0.25,1],[0,1],[0,0.75],[0,0.5],[0,0.25]];outlineConnect=0;gradientColor=none;html=1;whiteSpace=wrap;fontSize=12;fontStyle=0;container=1;pointerEvents=0;collapsible=0;recursiveResize=0;shape=mxgraph.aws4.group;grIcon=mxgraph.aws4.group_security_group;grStroke=0;strokeColor=#7AA116;fillColor=#F2F6E8;verticalAlign=top;align=left;spacingLeft=30;fontColor=#248814;dashed=0;" parent="14CGLhOL8HgO2hVUa04r-5" vertex="1">
          <mxGeometry x="44" y="90" width="116" height="310" as="geometry" />
        </mxCell>
        <mxCell id="14CGLhOL8HgO2hVUa04r-29" value="M2 ENI" style="sketch=0;outlineConnect=0;fontColor=#232F3E;gradientColor=none;fillColor=#8C4FFF;strokeColor=none;dashed=0;verticalLabelPosition=bottom;verticalAlign=top;align=center;html=1;fontSize=12;fontStyle=0;aspect=fixed;pointerEvents=1;shape=mxgraph.aws4.elastic_network_interface;" parent="14CGLhOL8HgO2hVUa04r-28" vertex="1">
          <mxGeometry x="33" y="250" width="50" height="50" as="geometry" />
        </mxCell>
        <mxCell id="14CGLhOL8HgO2hVUa04r-27" style="edgeStyle=orthogonalEdgeStyle;rounded=0;orthogonalLoop=1;jettySize=auto;html=1;" parent="14CGLhOL8HgO2hVUa04r-5" source="14CGLhOL8HgO2hVUa04r-26" edge="1">
          <mxGeometry relative="1" as="geometry">
            <mxPoint x="100" y="340" as="targetPoint" />
          </mxGeometry>
        </mxCell>
        <mxCell id="4LkBZlG7UxrlaeLVsOPg-5" value="Public subnet" style="points=[[0,0],[0.25,0],[0.5,0],[0.75,0],[1,0],[1,0.25],[1,0.5],[1,0.75],[1,1],[0.75,1],[0.5,1],[0.25,1],[0,1],[0,0.75],[0,0.5],[0,0.25]];outlineConnect=0;gradientColor=none;html=1;whiteSpace=wrap;fontSize=12;fontStyle=0;container=1;pointerEvents=0;collapsible=0;recursiveResize=0;shape=mxgraph.aws4.group;grIcon=mxgraph.aws4.group_security_group;grStroke=0;strokeColor=#7AA116;fillColor=#F2F6E8;verticalAlign=top;align=left;spacingLeft=30;fontColor=#248814;dashed=0;" parent="14CGLhOL8HgO2hVUa04r-5" vertex="1">
          <mxGeometry x="242" y="90" width="116" height="310" as="geometry" />
        </mxCell>
        <mxCell id="4LkBZlG7UxrlaeLVsOPg-2" value="M2 Environment" style="fillColor=none;strokeColor=#5A6C86;dashed=1;verticalAlign=top;fontStyle=0;fontColor=#5A6C86;whiteSpace=wrap;html=1;" parent="14CGLhOL8HgO2hVUa04r-5" vertex="1">
          <mxGeometry x="12" y="170" width="388" height="470" as="geometry" />
        </mxCell>
        <mxCell id="14CGLhOL8HgO2hVUa04r-26" value="M2 Load Balancer" style="sketch=0;outlineConnect=0;fontColor=#232F3E;gradientColor=none;fillColor=#8C4FFF;strokeColor=none;dashed=0;verticalLabelPosition=bottom;verticalAlign=top;align=center;html=1;fontSize=12;fontStyle=0;aspect=fixed;pointerEvents=1;shape=mxgraph.aws4.network_load_balancer;" parent="14CGLhOL8HgO2hVUa04r-5" vertex="1">
          <mxGeometry x="174" y="205" width="60" height="60" as="geometry" />
        </mxCell>
        <mxCell id="iGiGS2CE--y2x-XeJ9Tu-3" value="Security Group" style="fontStyle=0;verticalAlign=top;align=center;spacingTop=-2;fillColor=none;rounded=0;whiteSpace=wrap;html=1;strokeColor=#FF0000;strokeWidth=2;dashed=1;container=1;collapsible=0;expand=0;recursiveResize=0;" vertex="1" parent="14CGLhOL8HgO2hVUa04r-5">
          <mxGeometry x="50" y="150" width="210" height="260" as="geometry" />
        </mxCell>
        <mxCell id="4LkBZlG7UxrlaeLVsOPg-3" style="edgeStyle=orthogonalEdgeStyle;rounded=0;orthogonalLoop=1;jettySize=auto;html=1;entryX=1;entryY=0.5;entryDx=0;entryDy=0;" parent="14CGLhOL8HgO2hVUa04r-4" source="4LkBZlG7UxrlaeLVsOPg-1" target="4LkBZlG7UxrlaeLVsOPg-2" edge="1">
          <mxGeometry relative="1" as="geometry" />
        </mxCell>
        <mxCell id="4LkBZlG7UxrlaeLVsOPg-4" value="Deployed" style="edgeLabel;html=1;align=center;verticalAlign=middle;resizable=0;points=[];" parent="4LkBZlG7UxrlaeLVsOPg-3" vertex="1" connectable="0">
          <mxGeometry x="0.2408" relative="1" as="geometry">
            <mxPoint as="offset" />
          </mxGeometry>
        </mxCell>
        <mxCell id="4LkBZlG7UxrlaeLVsOPg-1" value="Application Bucket" style="sketch=0;outlineConnect=0;fontColor=#232F3E;gradientColor=none;fillColor=#7AA116;strokeColor=none;dashed=0;verticalLabelPosition=bottom;verticalAlign=top;align=center;html=1;fontSize=12;fontStyle=0;aspect=fixed;pointerEvents=1;shape=mxgraph.aws4.bucket_with_objects;" parent="14CGLhOL8HgO2hVUa04r-4" vertex="1">
          <mxGeometry x="490" y="240" width="57.69" height="60" as="geometry" />
        </mxCell>
        <mxCell id="iGiGS2CE--y2x-XeJ9Tu-1" value="Internet&#xa;gateway" style="sketch=0;outlineConnect=0;fontColor=#232F3E;gradientColor=none;strokeColor=#232F3E;fillColor=#ffffff;dashed=0;verticalLabelPosition=bottom;verticalAlign=top;align=center;html=1;fontSize=12;fontStyle=0;aspect=fixed;shape=mxgraph.aws4.resourceIcon;resIcon=mxgraph.aws4.internet_gateway;" vertex="1" parent="14CGLhOL8HgO2hVUa04r-3">
          <mxGeometry x="194" y="20" width="60" height="60" as="geometry" />
        </mxCell>
        <mxCell id="14CGLhOL8HgO2hVUa04r-22" value="Service Account" style="points=[[0,0],[0.25,0],[0.5,0],[0.75,0],[1,0],[1,0.25],[1,0.5],[1,0.75],[1,1],[0.75,1],[0.5,1],[0.25,1],[0,1],[0,0.75],[0,0.5],[0,0.25]];outlineConnect=0;gradientColor=none;html=1;whiteSpace=wrap;fontSize=12;fontStyle=0;container=1;pointerEvents=0;collapsible=0;recursiveResize=0;shape=mxgraph.aws4.group;grIcon=mxgraph.aws4.group_account;strokeColor=#CD2264;fillColor=none;verticalAlign=top;align=left;spacingLeft=30;fontColor=#CD2264;dashed=0;" parent="1" vertex="1">
          <mxGeometry x="30" y="750" width="610" height="170" as="geometry" />
        </mxCell>
        <mxCell id="14CGLhOL8HgO2hVUa04r-14" value="M2 Instance" style="shape=image;verticalLabelPosition=bottom;labelBackgroundColor=default;verticalAlign=top;aspect=fixed;imageAspect=0;image=data:image/png,iVBORw0KGgoAAAANSUhEUgAAAFAAAABQCAIAAAABc2X6AAAAAXNSR0IArs4c6QAAAERlWElmTU0AKgAAAAgAAYdpAAQAAAABAAAAGgAAAAAAA6ABAAMAAAABAAEAAKACAAQAAAABAAAAUKADAAQAAAABAAAAUAAAAAAx4ExPAAAKiElEQVR4Ae1aCVCURxbeYbhhYLgZGIb7EEEOEQKEy0UCgiIeSdQclZjaVHbdHFV771blqq3sRk2yu4lJVVJW1vWIiGhUXARFrgiouIIgt9zDDXLDcO3HTDn1O8zR/8w/VqEzNQX99//69Xv9ut/73uthsX449LOn6aP3NCm7rKtO4Sfd4joL6yz8hK2Abks/YQZdoY7OwiuW5AnreOosrK9tA/JMzNJ4HhsdBAIzC56xmaWB4dicqHdmsnp0sLCv82x388zCvLZloPJnaS95iLZ1+jAgKsFBwKJO+Gh7RDRzrL3uu5a7d0cHH32jrSetKOxgbPrthqQ0Jw9IPbUwn9/bfqG7pWF8WDg9OTEvEphauJlZeJhbbuN7R9rwQLO4tPRJ3Y0Pa8rmlxa1pehDvswrHGXrlBmV5mRiPjE/d7D+5mcNlWg8nE72/zqu3Zue697wCDTQ07s+KNxbfql9ckyWiNFnhhXe5Oh6MSYD0l/t64D0/TNTJNLCzqei0vimnL6ZqQ35x7umxklGqUfDpJcO4tplRW+Btoebq1KKsgm1hdxlQz2hecewRjgL2dFbjdladKWMKWzK1j/3bDpH3xBOaH/lVbqncXB2envp+cbxkTBrh2/CEtWzHskoxrb0x4HRf/aPuDXcF1twSu1Igz1SlrgbFl5YWhoWzTSNjxT0dx65f7eNuYPNZu18jmRhlNMITDkno1LZLD1YqWNKfa+DM9w9PZHk6GaoxzbTN3Ax5cTa8fd7h9gYmlzr78QqKBeD5C0zp+VV97VGeuzMzsabw70ksyqh+b61Fl99lp6dsUkw1/55ge9Lrmve9gkJtrJLLspWe+9IZ2TmDL/s5g+O3zRXSflq2IAL6Jme/G9P62sVuZFXTsDyMPW/QjdqyBbDGVDYh2PlZc4dEs2UDHRpLtBKDvALGaU/ov91j4BQK/uVBLR6GFDY38IGUxYydMbkSl8+1JPd1QSIus8jUC4BeScTClsuK9ypTbQA/kBs+JvCcyfXTS6lmk4L6GKLk+cuF58QK3vsZ7DumZ6QOwFTnTXi7MLVzMLR2AzJltps1VF4j6vfgaA45H3SWREnc4St0kdtNJBUwnUBignT32ydHD3T2fR1cxUadOeiBzxM2PonIlPTnT0xTdWDgf+03bvU09o6MTq7uEB3YjXof+kVhJgMyG2ub4DhosWFj2rL/153g1Z8pqEwkMDluB1Ihh7Mzb5dWXC8vY4BHEBfb7guyPCWVzA2Gkb/0NHwcvklcp1pIK3vI5I389zvT4wmXMsE7qEvKmMj4CDhtOG60/me660cuAbGub1thNxJvfRugR++o3OzaSVnAfEJuWuV7HJv2+aibECUX/uEJNi7EM5FpDCbxfogIBIcf3OnqH5smJD1YyD7aVD419oKbPL3xeKRzEikMKKfN8cKqgLlkjCV0kAUNb7S4SSNzxsr4VMAPNeK4YDKIURhKVVcnTrZUU/uGzDxK27+X4clwrGrFIJKMDk/98bNvFMdDdROJW2Eqx+7W15189/k4Fo7OqSEUvKKyMLwiqDO7WmTjFH5F8nd4bBEODloC09O64tYcDIy9bOQeCRMKieSEBSJPWi4uB6ocgjR8qOeDEbtZIku4uTpqLQIGx5Suf2VBUdaa1QKQSX4lXfwoeC4d31C4X5fuH6RBFR1iFEtMAmVj6I20SpaGhhhPDaPIi7SfhTcK5NegrYoPsZcPUVXW/D5qulOfEEmygAxds5g9ayts5S5osaoaBavLAwMFRFQ+4kURrUFY5xNzKkjV7Z/57cByMTOyAQBY33escqRvpU0JD0IsBiOUA/0ejVhF7J/5aPsxbYdEautnBJviRTGeoMUwF0RO6zumeitfwuK0WOxPq4tTy0+K1kjRfQq+1HxTCrMOlB/C1nKFyEJxyM342wrGhXMtcOr6gcDigio/UQKlw50Y8x6Bck38uGKTXsz+F4ID+kl596vuY6bBOoc6rUREX5fVbzrpwvj8yJgHhT3EBrlstrp4oN+1PHlvpXpJFIYWxTDfuG5DkFV5sM1MMqP3+krFmVPWc5F4X0ZAg0fz3Q1vVZxGUwCLG3z4nZI0gYqT2AspKjYEReELdR+RW0ihXN7WlEx9TTnviDwlWEEq/688HSdGH4hnEgSKRkaTR6fd/FBeAMH7NjEwiyZWxsUwyVF7C8ab88tEt1LkSYPKJTvcPF5jucOG/bPPnKBgldH22q9OFahCCQCPyM2G+Uezfc04vCB4NhDIfGI6ijuo6wlMy/6z8VsC7dxRKKKXbC4HO9Vf0gVrhkd8rGwQmzcwfeuGx+Gwam8RYuLWZ2NuBlEWIqz40fZOqPgiHtDKg2tNsoa52O3vSjwg93e/d+1P1WXzj16sYj7xwuxGXH2fBQ3U4qzh0TThPxJFQY76ICbARwYJKKBXNv+2WlEfOqq4oqouL8LwHsd1xayAtkL1ar74GL5SvwuHFpEh9Ti7OyuZqoycF244jgSkexuZomKBy6xaGVvNAoAmBXbDFcq7/mGYjvhEQf45lAv1H7ndoHUnrgoxXUp0CjKIO/cvvZtSzVVXJVt5HqoHyEa4Vy8WJYjvZHb5xGQwff241jjYhlMsNAnli+xCpCxquRJJaCnsGQkvNd7vuu3OnkARUp6bM8epgZeiHsoOH6/dzB1Jlrtg/W3/lhdQs1VvgtPet09AEwGZqdzhPdRxJSU9WixBbE6CkvnQATmm5rjvCG5kZS1cNN7Y7hXIuhe1zVwoaaKAYOUD7UxPidCtgSPgE4sHBxhxVAP2uBsZWiMWkft2JAmcV4jhamCIkTjaH0QEHWw4dYfqkqor9Ru/zN041teQTA1DK42E5mBRHFYZszKR8APRIiPAqPxaoIgx1jJQW7P2NwssOqnQbFwCrh5lktDt5MBC+NI58Ztx1/kgxml5yWwjK4ciuiBZDKjln9VgHpLctEZSSaoiJiknwELIxOUIEpcZO929aNb4lAiJYDkbtc10BY0KGtIchgl9CSvaMRhRewAcWBV/Copmee+wdoRv1bK72snTNYU8UQ/8Hl+ws54exfk4XvKc75sukON+UoGKn/FgMKSCQDFzgtbEh1cUUx7xX0tHmXQmHI5ZN5u53vnxGXwTTgoU20qzAKGkSFQ+5ExhSEBIuTRtnu+HGugMextFHeLB7romgWjPgmK+UdoAn5SgFuF9NJzJFUecv2ZVBizIhqf7myYWZxPsBdgN4Zb85BpwZkRFmtRl4K3x28cUF5HDfy3VcWEORC5wgx4aepkUuCBLALZIso91LeEbeQDKN+VDnZTgQfhWJVkjFkYNvyLf8TRZ1JM9PWv9HUA1gN+AVE7P4SfKkWREKC6gkN7b2y5woziDirb0wvzhNUMkimIyrQqGQF4/PuZlC1OHgB9UuABGBh55aTKsUoIpMAj3Npx34081HqUEBO+YmBL64AHM7sGFtMBD8Jtq4yMMaelAx464EFwV7z6gIf09DACPKTcGGwwkB7KlaagryMs7xiqM8DStL4lA924SQPMkstW804G4rDmQjxODtqy8OPUgdZcOoVpLdcqJNZZeBUajZbIOgvTWq5VSKyz8Co0Gi2RdRamtVyrkPj/WnHVBBTTFaQAAAAASUVORK5CYII=;" parent="14CGLhOL8HgO2hVUa04r-22" vertex="1">
          <mxGeometry x="82" y="30" width="80" height="80" as="geometry" />
        </mxCell>
        <mxCell id="14CGLhOL8HgO2hVUa04r-24" style="edgeStyle=orthogonalEdgeStyle;rounded=0;orthogonalLoop=1;jettySize=auto;html=1;startArrow=classic;startFill=1;" parent="1" source="14CGLhOL8HgO2hVUa04r-29" target="14CGLhOL8HgO2hVUa04r-14" edge="1">
          <mxGeometry relative="1" as="geometry">
            <mxPoint x="280" y="660" as="sourcePoint" />
          </mxGeometry>
        </mxCell>
      </root>
    </mxGraphModel>
  </diagram>
</mxfile>
